<svg width="20" height="24" viewBox="0 0 20 24" fill="none" xmlns="http://www.w3.org/2000/svg">
    <path d="M19.2287 18.3882C18.8828 19.1873 18.4734 19.9228 17.999 20.5991C17.3524 21.521 16.823 22.1591 16.415 22.5134C15.7826 23.0951 15.1049 23.393 14.3793 23.4099C13.8583 23.4099 13.2301 23.2617 12.4988 22.961C11.7651 22.6617 11.0908 22.5134 10.4743 22.5134C9.82774 22.5134 9.13428 22.6617 8.39254 22.961C7.64967 23.2617 7.05122 23.4184 6.59367 23.4339C5.89781 23.4635 5.20421 23.1572 4.51188 22.5134C4.07 22.128 3.51729 21.4673 2.85518 20.5313C2.14478 19.5318 1.56073 18.3727 1.10318 17.0513C0.613152 15.624 0.367505 14.2419 0.367505 12.9038C0.367505 11.3711 0.698705 10.0491 1.36209 8.94128C1.88346 8.05145 2.57706 7.34952 3.44515 6.83422C4.31325 6.31893 5.25122 6.05634 6.26134 6.03954C6.81405 6.03954 7.53885 6.2105 8.43955 6.5465C9.33772 6.88363 9.91442 7.0546 10.1673 7.0546C10.3563 7.0546 10.997 6.85469 12.083 6.45615C13.1101 6.08655 13.9769 5.93352 14.687 5.9938C16.6113 6.14909 18.0569 6.90763 19.0183 8.27422C17.2974 9.31695 16.4461 10.7774 16.463 12.651C16.4786 14.1103 17.008 15.3247 18.0484 16.289C18.52 16.7365 19.0466 17.0824 19.6324 17.328C19.5054 17.6965 19.3713 18.0494 19.2287 18.3882ZM14.8155 1.02213C14.8155 2.16595 14.3976 3.23394 13.5647 4.22246C12.5595 5.39761 11.3437 6.07667 10.0252 5.96952C10.0084 5.83229 9.99871 5.68787 9.99871 5.5361C9.99871 4.43803 10.4767 3.26288 11.3256 2.30203C11.7494 1.81554 12.2884 1.41103 12.9421 1.08834C13.5943 0.770467 14.2113 0.594674 14.7915 0.564575C14.8084 0.717483 14.8155 0.870406 14.8155 1.02211V1.02213Z" fill="white"/>
</svg>
